# xmcd
#
# Track frame offsets:
#	150
#	18150
#	39450
#	63970
#	78920
#	96845
#	118210
#
# Disc length: 1659 seconds
#
# Revision: 1
# Processed by: cddbd v1.5.1PL0 Copyright (c) Steve Scherf et al.
# Submitted via: CDmax 2.0
#
DISCID=4e067907
DTITLE=Peter Fahey - ASTRAL SKYLINE
DYEAR=1994
DGENRE=Country
TTITLE0=Neighborhood
TTITLE1=Someday
TTITLE2=Lonesome
TTITLE3=Runnin'
TTITLE4=Angel
TTITLE5=Fallin'
TTITLE6=Astral Skyline
EXTD=
EXTT0=
EXTT1=
EXTT2=
EXTT3=
EXTT4=
EXTT5=
EXTT6=
PLAYORDER=
